Round Sans.ufo
<glyph name="comma" format="1">
  <advance width="560"/>
  <unicode hex="002C"/>
  <outline>
    <contour>
      <point x="204.0" y="168.0" type="curve" smooth="yes"/>
      <point x="204.0" y="152.0"/>
      <point x="191.0" y="138.0"/>
      <point x="174.0" y="138.0" type="curve" smooth="yes"/>
      <point x="159.0" y="138.0"/>
      <point x="145.0" y="152.0"/>
      <point x="145.0" y="168.0" type="curve" smooth="yes"/>
      <point x="145.0" y="184.0"/>
      <point x="159.0" y="197.0"/>
      <point x="174.0" y="197.0" type="curve" smooth="yes"/>
      <point x="191.0" y="197.0"/>
      <point x="204.0" y="184.0"/>
    </contour>
    <contour>
      <point x="274.0" y="168.0" type="curve" smooth="yes"/>
      <point x="274.0" y="152.0"/>
      <point x="261.0" y="138.0"/>
      <point x="244.0" y="138.0" type="curve" smooth="yes"/>
      <point x="228.0" y="138.0"/>
      <point x="215.0" y="152.0"/>
      <point x="215.0" y="168.0" type="curve" smooth="yes"/>
      <point x="215.0" y="184.0"/>
      <point x="228.0" y="197.0"/>
      <point x="244.0" y="197.0" type="curve" smooth="yes"/>
      <point x="261.0" y="197.0"/>
      <point x="274.0" y="184.0"/>
    </contour>
    <contour>
      <point x="274.0" y="98.0" type="curve" smooth="yes"/>
      <point x="274.0" y="83.0"/>
      <point x="261.0" y="69.0"/>
      <point x="244.0" y="69.0" type="curve" smooth="yes"/>
      <point x="228.0" y="69.0"/>
      <point x="215.0" y="83.0"/>
      <point x="215.0" y="98.0" type="curve" smooth="yes"/>
      <point x="215.0" y="115.0"/>
      <point x="228.0" y="128.0"/>
      <point x="244.0" y="128.0" type="curve" smooth="yes"/>
      <point x="261.0" y="128.0"/>
      <point x="274.0" y="115.0"/>
    </contour>
    <contour>
      <point x="204.0" y="29.0" type="curve" smooth="yes"/>
      <point x="204.0" y="14.0"/>
      <point x="191.0" y="0.0"/>
      <point x="174.0" y="0.0" type="curve" smooth="yes"/>
      <point x="159.0" y="0.0"/>
      <point x="145.0" y="14.0"/>
      <point x="145.0" y="29.0" type="curve" smooth="yes"/>
      <point x="145.0" y="46.0"/>
      <point x="159.0" y="58.0"/>
      <point x="174.0" y="58.0" type="curve" smooth="yes"/>
      <point x="191.0" y="58.0"/>
      <point x="204.0" y="46.0"/>
    </contour>
  </outline>
</glyph>
<glyph name="E" format="1">
  <advance width="560"/>
  <unicode hex="0045"/>
  <outline>
    <contour>
      <point x="413" y="704"/>
      <point x="399" y="691"/>
      <point x="383" y="691" type="curve" smooth="yes"/>
      <point x="366" y="691"/>
      <point x="354" y="704"/>
      <point x="354" y="721" type="curve" smooth="yes"/>
      <point x="354" y="736"/>
      <point x="366" y="750"/>
      <point x="383" y="750" type="curve" smooth="yes"/>
      <point x="399" y="750"/>
      <point x="413" y="736"/>
      <point x="413" y="721" type="curve" smooth="yes"/>
    </contour>
    <contour>
      <point x="343" y="704"/>
      <point x="329" y="691"/>
      <point x="313" y="691" type="curve" smooth="yes"/>
      <point x="297" y="691"/>
      <point x="284" y="704"/>
      <point x="284" y="721" type="curve" smooth="yes"/>
      <point x="284" y="736"/>
      <point x="297" y="750"/>
      <point x="313" y="750" type="curve" smooth="yes"/>
      <point x="329" y="750"/>
      <point x="343" y="736"/>
      <point x="343" y="721" type="curve" smooth="yes"/>
    </contour>
    <contour>
      <point x="483" y="704"/>
      <point x="469" y="691"/>
      <point x="453" y="691" type="curve" smooth="yes"/>
      <point x="436" y="691"/>
      <point x="424" y="704"/>
      <point x="424" y="721" type="curve" smooth="yes"/>
      <point x="424" y="736"/>
      <point x="436" y="750"/>
      <point x="453" y="750" type="curve" smooth="yes"/>
      <point x="469" y="750"/>
      <point x="483" y="736"/>
      <point x="483" y="721" type="curve" smooth="yes"/>
    </contour>
    <contour>
      <point x="64.0" y="220.0"/>
      <point x="51.0" y="208.0"/>
      <point x="34.0" y="208.0" type="curve" smooth="yes"/>
      <point x="19.0" y="208.0"/>
      <point x="5.0" y="220.0"/>
      <point x="5.0" y="237.0" type="curve" smooth="yes"/>
      <point x="5.0" y="254.0"/>
      <point x="19.0" y="266.0"/>
      <point x="34.0" y="266.0" type="curve" smooth="yes"/>
      <point x="51.0" y="266.0"/>
      <point x="64.0" y="254.0"/>
      <point x="64.0" y="237.0" type="curve" smooth="yes"/>
    </contour>
    <contour>
      <point x="64.0" y="83.0"/>
      <point x="51.0" y="70.0"/>
      <point x="34.0" y="70.0" type="curve" smooth="yes"/>
      <point x="19.0" y="70.0"/>
      <point x="5.0" y="83.0"/>
      <point x="5.0" y="99.0" type="curve" smooth="yes"/>
      <point x="5.0" y="115.0"/>
      <point x="19.0" y="128.0"/>
      <point x="34.0" y="128.0" type="curve" smooth="yes"/>
      <point x="51.0" y="128.0"/>
      <point x="64.0" y="115.0"/>
      <point x="64.0" y="99.0" type="curve" smooth="yes"/>
    </contour>
    <contour>
      <point x="64.0" y="152.0"/>
      <point x="51.0" y="139.0"/>
      <point x="34.0" y="139.0" type="curve" smooth="yes"/>
      <point x="19.0" y="139.0"/>
      <point x="5.0" y="152.0"/>
      <point x="5.0" y="168.0" type="curve" smooth="yes"/>
      <point x="5.0" y="185.0"/>
      <point x="19.0" y="197.0"/>
      <point x="34.0" y="197.0" type="curve" smooth="yes"/>
      <point x="51.0" y="197.0"/>
      <point x="64.0" y="185.0"/>
      <point x="64.0" y="168.0" type="curve" smooth="yes"/>
    </contour>
    <contour>
      <point x="484.0" y="29.0" type="curve" smooth="yes"/>
      <point x="484.0" y="14.0"/>
      <point x="470.0" y="0.0"/>
      <point x="454.0" y="0.0" type="curve" smooth="yes"/>
      <point x="437.0" y="0.0"/>
      <point x="425.0" y="14.0"/>
      <point x="425.0" y="29.0" type="curve" smooth="yes"/>
      <point x="425.0" y="46.0"/>
      <point x="437.0" y="58.0"/>
      <point x="454.0" y="58.0" type="curve" smooth="yes"/>
      <point x="470.0" y="58.0"/>
      <point x="484.0" y="46.0"/>
    </contour>
    <contour>
      <point x="64.0" y="375.0" type="curve" smooth="yes"/>
      <point x="64.0" y="359.0"/>
      <point x="51.0" y="346.0"/>
      <point x="34.0" y="346.0" type="curve" smooth="yes"/>
      <point x="19.0" y="346.0"/>
      <point x="5.0" y="359.0"/>
      <point x="5.0" y="375.0" type="curve" smooth="yes"/>
      <point x="5.0" y="392.0"/>
      <point x="19.0" y="404.0"/>
      <point x="34.0" y="404.0" type="curve" smooth="yes"/>
      <point x="51.0" y="404.0"/>
      <point x="64.0" y="392.0"/>
    </contour>
    <contour>
      <point x="134.0" y="29.0" type="curve" smooth="yes"/>
      <point x="134.0" y="14.0"/>
      <point x="121.0" y="0.0"/>
      <point x="104.0" y="0.0" type="curve" smooth="yes"/>
      <point x="89.0" y="0.0"/>
      <point x="75.0" y="14.0"/>
      <point x="75.0" y="29.0" type="curve" smooth="yes"/>
      <point x="75.0" y="46.0"/>
      <point x="89.0" y="58.0"/>
      <point x="104.0" y="58.0" type="curve" smooth="yes"/>
      <point x="121.0" y="58.0"/>
      <point x="134.0" y="46.0"/>
    </contour>
    <contour>
      <point x="64" y="513" type="curve" smooth="yes"/>
      <point x="64" y="497"/>
      <point x="51" y="484"/>
      <point x="34" y="484" type="curve" smooth="yes"/>
      <point x="19" y="484"/>
      <point x="5" y="497"/>
      <point x="5" y="513" type="curve" smooth="yes"/>
      <point x="5" y="529"/>
      <point x="19" y="542"/>
      <point x="34" y="542" type="curve" smooth="yes"/>
      <point x="51" y="542"/>
      <point x="64" y="529"/>
    </contour>
    <contour>
      <point x="274" y="721" type="curve" smooth="yes"/>
      <point x="274" y="704"/>
      <point x="260" y="691"/>
      <point x="244" y="691" type="curve" smooth="yes"/>
      <point x="228" y="691"/>
      <point x="215" y="704"/>
      <point x="215" y="721" type="curve" smooth="yes"/>
      <point x="215" y="736"/>
      <point x="228" y="750"/>
      <point x="244" y="750" type="curve" smooth="yes"/>
      <point x="260" y="750"/>
      <point x="274" y="736"/>
    </contour>
    <contour>
      <point x="64" y="721" type="curve" smooth="yes"/>
      <point x="64" y="704"/>
      <point x="51" y="691"/>
      <point x="34" y="691" type="curve" smooth="yes"/>
      <point x="19" y="691"/>
      <point x="5" y="704"/>
      <point x="5" y="721" type="curve" smooth="yes"/>
      <point x="5" y="736"/>
      <point x="19" y="750"/>
      <point x="34" y="750" type="curve" smooth="yes"/>
      <point x="51" y="750"/>
      <point x="64" y="736"/>
    </contour>
    <contour>
      <point x="64.0" y="29.0" type="curve" smooth="yes"/>
      <point x="64.0" y="13.0"/>
      <point x="51.0" y="0.0"/>
      <point x="34.0" y="0.0" type="curve" smooth="yes"/>
      <point x="19.0" y="0.0"/>
      <point x="5.0" y="13.0"/>
      <point x="5.0" y="29.0" type="curve" smooth="yes"/>
      <point x="5.0" y="45.0"/>
      <point x="19.0" y="58.0"/>
      <point x="34.0" y="58.0" type="curve" smooth="yes"/>
      <point x="51.0" y="58.0"/>
      <point x="64.0" y="45.0"/>
    </contour>
    <contour>
      <point x="204.0" y="29.0" type="curve" smooth="yes"/>
      <point x="204.0" y="14.0"/>
      <point x="191.0" y="0.0"/>
      <point x="174.0" y="0.0" type="curve" smooth="yes"/>
      <point x="159.0" y="0.0"/>
      <point x="145.0" y="14.0"/>
      <point x="145.0" y="29.0" type="curve" smooth="yes"/>
      <point x="145.0" y="46.0"/>
      <point x="159.0" y="58.0"/>
      <point x="174.0" y="58.0" type="curve" smooth="yes"/>
      <point x="191.0" y="58.0"/>
      <point x="204.0" y="46.0"/>
    </contour>
    <contour>
      <point x="414.0" y="29.0" type="curve" smooth="yes"/>
      <point x="414.0" y="14.0"/>
      <point x="400.0" y="0.0"/>
      <point x="384.0" y="0.0" type="curve" smooth="yes"/>
      <point x="367.0" y="0.0"/>
      <point x="355.0" y="14.0"/>
      <point x="355.0" y="29.0" type="curve" smooth="yes"/>
      <point x="355.0" y="46.0"/>
      <point x="367.0" y="58.0"/>
      <point x="384.0" y="58.0" type="curve" smooth="yes"/>
      <point x="400.0" y="58.0"/>
      <point x="414.0" y="46.0"/>
    </contour>
    <contour>
      <point x="414.0" y="375.0" type="curve" smooth="yes"/>
      <point x="414.0" y="359.0"/>
      <point x="400.0" y="346.0"/>
      <point x="384.0" y="346.0" type="curve" smooth="yes"/>
      <point x="367.0" y="346.0"/>
      <point x="355.0" y="359.0"/>
      <point x="355.0" y="375.0" type="curve" smooth="yes"/>
      <point x="355.0" y="392.0"/>
      <point x="367.0" y="404.0"/>
      <point x="384.0" y="404.0" type="curve" smooth="yes"/>
      <point x="400.0" y="404.0"/>
      <point x="414.0" y="392.0"/>
    </contour>
    <contour>
      <point x="64" y="582" type="curve" smooth="yes"/>
      <point x="64" y="566"/>
      <point x="51" y="553"/>
      <point x="34" y="553" type="curve" smooth="yes"/>
      <point x="19" y="553"/>
      <point x="5" y="566"/>
      <point x="5" y="582" type="curve" smooth="yes"/>
      <point x="5" y="598"/>
      <point x="19" y="611"/>
      <point x="34" y="611" type="curve" smooth="yes"/>
      <point x="51" y="611"/>
      <point x="64" y="598"/>
    </contour>
    <contour>
      <point x="64" y="651" type="curve" smooth="yes"/>
      <point x="64" y="635"/>
      <point x="51" y="622"/>
      <point x="34" y="622" type="curve" smooth="yes"/>
      <point x="19" y="622"/>
      <point x="5" y="635"/>
      <point x="5" y="651" type="curve" smooth="yes"/>
      <point x="5" y="667"/>
      <point x="19" y="681"/>
      <point x="34" y="681" type="curve" smooth="yes"/>
      <point x="51" y="681"/>
      <point x="64" y="667"/>
    </contour>
    <contour>
      <point x="344.0" y="29.0" type="curve" smooth="yes"/>
      <point x="344.0" y="14.0"/>
      <point x="330.0" y="0.0"/>
      <point x="314.0" y="0.0" type="curve" smooth="yes"/>
      <point x="298.0" y="0.0"/>
      <point x="285.0" y="14.0"/>
      <point x="285.0" y="29.0" type="curve" smooth="yes"/>
      <point x="285.0" y="46.0"/>
      <point x="298.0" y="58.0"/>
      <point x="314.0" y="58.0" type="curve" smooth="yes"/>
      <point x="330.0" y="58.0"/>
      <point x="344.0" y="46.0"/>
    </contour>
    <contour>
      <point x="274.0" y="29.0" type="curve" smooth="yes"/>
      <point x="274.0" y="14.0"/>
      <point x="261.0" y="0.0"/>
      <point x="244.0" y="0.0" type="curve" smooth="yes"/>
      <point x="228.0" y="0.0"/>
      <point x="215.0" y="14.0"/>
      <point x="215.0" y="29.0" type="curve" smooth="yes"/>
      <point x="215.0" y="46.0"/>
      <point x="228.0" y="58.0"/>
      <point x="244.0" y="58.0" type="curve" smooth="yes"/>
      <point x="261.0" y="58.0"/>
      <point x="274.0" y="46.0"/>
    </contour>
    <contour>
      <point x="134" y="721" type="curve" smooth="yes"/>
      <point x="134" y="704"/>
      <point x="121" y="691"/>
      <point x="104" y="691" type="curve" smooth="yes"/>
      <point x="89" y="691"/>
      <point x="75" y="704"/>
      <point x="75" y="721" type="curve" smooth="yes"/>
      <point x="75" y="736"/>
      <point x="89" y="750"/>
      <point x="104" y="750" type="curve" smooth="yes"/>
      <point x="121" y="750"/>
      <point x="134" y="736"/>
    </contour>
    <contour>
      <point x="344.0" y="375.0" type="curve" smooth="yes"/>
      <point x="344.0" y="359.0"/>
      <point x="330.0" y="346.0"/>
      <point x="314.0" y="346.0" type="curve" smooth="yes"/>
      <point x="298.0" y="346.0"/>
      <point x="285.0" y="359.0"/>
      <point x="285.0" y="375.0" type="curve" smooth="yes"/>
      <point x="285.0" y="392.0"/>
      <point x="298.0" y="404.0"/>
      <point x="314.0" y="404.0" type="curve" smooth="yes"/>
      <point x="330.0" y="404.0"/>
      <point x="344.0" y="392.0"/>
    </contour>
    <contour>
      <point x="204.0" y="375.0" type="curve" smooth="yes"/>
      <point x="204.0" y="359.0"/>
      <point x="191.0" y="346.0"/>
      <point x="174.0" y="346.0" type="curve" smooth="yes"/>
      <point x="159.0" y="346.0"/>
      <point x="145.0" y="359.0"/>
      <point x="145.0" y="375.0" type="curve" smooth="yes"/>
      <point x="145.0" y="392.0"/>
      <point x="159.0" y="404.0"/>
      <point x="174.0" y="404.0" type="curve" smooth="yes"/>
      <point x="191.0" y="404.0"/>
      <point x="204.0" y="392.0"/>
    </contour>
    <contour>
      <point x="64.0" y="306.0" type="curve" smooth="yes"/>
      <point x="64.0" y="290.0"/>
      <point x="51.0" y="277.0"/>
      <point x="34.0" y="277.0" type="curve" smooth="yes"/>
      <point x="19.0" y="277.0"/>
      <point x="5.0" y="290.0"/>
      <point x="5.0" y="306.0" type="curve" smooth="yes"/>
      <point x="5.0" y="322.0"/>
      <point x="19.0" y="335.0"/>
      <point x="34.0" y="335.0" type="curve" smooth="yes"/>
      <point x="51.0" y="335.0"/>
      <point x="64.0" y="322.0"/>
    </contour>
    <contour>
      <point x="204" y="721" type="curve" smooth="yes"/>
      <point x="204" y="704"/>
      <point x="191" y="691"/>
      <point x="174" y="691" type="curve" smooth="yes"/>
      <point x="158" y="691"/>
      <point x="145" y="704"/>
      <point x="145" y="721" type="curve" smooth="yes"/>
      <point x="145" y="736"/>
      <point x="158" y="750"/>
      <point x="174" y="750" type="curve" smooth="yes"/>
      <point x="191" y="750"/>
      <point x="204" y="736"/>
    </contour>
    <contour>
      <point x="64.0" y="444.0" type="curve" smooth="yes"/>
      <point x="64.0" y="427.0"/>
      <point x="51.0" y="415.0"/>
      <point x="34.0" y="415.0" type="curve" smooth="yes"/>
      <point x="19.0" y="415.0"/>
      <point x="5.0" y="427.0"/>
      <point x="5.0" y="444.0" type="curve" smooth="yes"/>
      <point x="5.0" y="461.0"/>
      <point x="19.0" y="473.0"/>
      <point x="34.0" y="473.0" type="curve" smooth="yes"/>
      <point x="51.0" y="473.0"/>
      <point x="64.0" y="461.0"/>
    </contour>
    <contour>
      <point x="274.0" y="375.0" type="curve" smooth="yes"/>
      <point x="274.0" y="359.0"/>
      <point x="261.0" y="346.0"/>
      <point x="244.0" y="346.0" type="curve" smooth="yes"/>
      <point x="228.0" y="346.0"/>
      <point x="215.0" y="359.0"/>
      <point x="215.0" y="375.0" type="curve" smooth="yes"/>
      <point x="215.0" y="392.0"/>
      <point x="228.0" y="404.0"/>
      <point x="244.0" y="404.0" type="curve" smooth="yes"/>
      <point x="261.0" y="404.0"/>
      <point x="274.0" y="392.0"/>
    </contour>
    <contour>
      <point x="134.0" y="375.0" type="curve" smooth="yes"/>
      <point x="134.0" y="359.0"/>
      <point x="121.0" y="346.0"/>
      <point x="104.0" y="346.0" type="curve" smooth="yes"/>
      <point x="89.0" y="346.0"/>
      <point x="75.0" y="359.0"/>
      <point x="75.0" y="375.0" type="curve" smooth="yes"/>
      <point x="75.0" y="392.0"/>
      <point x="89.0" y="404.0"/>
      <point x="104.0" y="404.0" type="curve" smooth="yes"/>
      <point x="121.0" y="404.0"/>
      <point x="134.0" y="392.0"/>
    </contour>
  </outline>
</glyph>
<glyph name="S" format="1">
  <advance width="560"/>
  <unicode hex="0053"/>
  <outline>
    <contour>
      <point x="64" y="83"/>
      <point x="51" y="69"/>
      <point x="34" y="69" type="curve" smooth="yes"/>
      <point x="19" y="69"/>
      <point x="5" y="83"/>
      <point x="5" y="99" type="curve" smooth="yes"/>
      <point x="5" y="115"/>
      <point x="19" y="128"/>
      <point x="34" y="128" type="curve" smooth="yes"/>
      <point x="51" y="128"/>
      <point x="64" y="115"/>
      <point x="64" y="99" type="curve" smooth="yes"/>
    </contour>
    <contour>
      <point x="344" y="704"/>
      <point x="330" y="691"/>
      <point x="314" y="691" type="curve" smooth="yes"/>
      <point x="298" y="691"/>
      <point x="285" y="704"/>
      <point x="285" y="721" type="curve" smooth="yes"/>
      <point x="285" y="736"/>
      <point x="298" y="750"/>
      <point x="314" y="750" type="curve" smooth="yes"/>
      <point x="330" y="750"/>
      <point x="344" y="736"/>
      <point x="344" y="721" type="curve" smooth="yes"/>
    </contour>
    <contour>
      <point x="484" y="98" type="curve" smooth="yes"/>
      <point x="484" y="83"/>
      <point x="470" y="69"/>
      <point x="454" y="69" type="curve" smooth="yes"/>
      <point x="437" y="69"/>
      <point x="425" y="83"/>
      <point x="425" y="98" type="curve" smooth="yes"/>
      <point x="425" y="115"/>
      <point x="437" y="128"/>
      <point x="454" y="128" type="curve" smooth="yes"/>
      <point x="470" y="128"/>
      <point x="484" y="115"/>
    </contour>
    <contour>
      <point x="134" y="30" type="curve" smooth="yes"/>
      <point x="134" y="14"/>
      <point x="121" y="0"/>
      <point x="104" y="0" type="curve" smooth="yes"/>
      <point x="89" y="0"/>
      <point x="75" y="14"/>
      <point x="75" y="30" type="curve" smooth="yes"/>
      <point x="75" y="46"/>
      <point x="89" y="59"/>
      <point x="104" y="59" type="curve" smooth="yes"/>
      <point x="121" y="59"/>
      <point x="134" y="46"/>
    </contour>
    <contour>
      <point x="64.0" y="168.0" type="curve" smooth="yes"/>
      <point x="64.0" y="152.0"/>
      <point x="51.0" y="138.0"/>
      <point x="34.0" y="138.0" type="curve" smooth="yes"/>
      <point x="19.0" y="138.0"/>
      <point x="5.0" y="152.0"/>
      <point x="5.0" y="168.0" type="curve" smooth="yes"/>
      <point x="5.0" y="184.0"/>
      <point x="19.0" y="197.0"/>
      <point x="34.0" y="197.0" type="curve" smooth="yes"/>
      <point x="51.0" y="197.0"/>
      <point x="64.0" y="184.0"/>
    </contour>
    <contour>
      <point x="414" y="237" type="curve" smooth="yes"/>
      <point x="414" y="221"/>
      <point x="400" y="207"/>
      <point x="384" y="207" type="curve" smooth="yes"/>
      <point x="367" y="207"/>
      <point x="355" y="221"/>
      <point x="355" y="237" type="curve" smooth="yes"/>
      <point x="355" y="253"/>
      <point x="367" y="266"/>
      <point x="384" y="266" type="curve" smooth="yes"/>
      <point x="400" y="266"/>
      <point x="414" y="253"/>
    </contour>
    <contour>
      <point x="274" y="721" type="curve" smooth="yes"/>
      <point x="274" y="704"/>
      <point x="260" y="691"/>
      <point x="244" y="691" type="curve" smooth="yes"/>
      <point x="228" y="691"/>
      <point x="215" y="704"/>
      <point x="215" y="721" type="curve" smooth="yes"/>
      <point x="215" y="736"/>
      <point x="228" y="750"/>
      <point x="244" y="750" type="curve" smooth="yes"/>
      <point x="260" y="750"/>
      <point x="274" y="736"/>
    </contour>
    <contour>
      <point x="64" y="582" type="curve" smooth="yes"/>
      <point x="64" y="566"/>
      <point x="51" y="553"/>
      <point x="34" y="553" type="curve" smooth="yes"/>
      <point x="19" y="553"/>
      <point x="5" y="566"/>
      <point x="5" y="582" type="curve" smooth="yes"/>
      <point x="5" y="598"/>
      <point x="19" y="611"/>
      <point x="34" y="611" type="curve" smooth="yes"/>
      <point x="51" y="611"/>
      <point x="64" y="598"/>
    </contour>
    <contour>
      <point x="414.0" y="721.0" type="curve" smooth="yes"/>
      <point x="414.0" y="704.0"/>
      <point x="400.0" y="691.0"/>
      <point x="384.0" y="691.0" type="curve" smooth="yes"/>
      <point x="367.0" y="691.0"/>
      <point x="355.0" y="704.0"/>
      <point x="355.0" y="721.0" type="curve" smooth="yes"/>
      <point x="355.0" y="736.0"/>
      <point x="367.0" y="750.0"/>
      <point x="384.0" y="750.0" type="curve" smooth="yes"/>
      <point x="400.0" y="750.0"/>
      <point x="414.0" y="736.0"/>
    </contour>
    <contour>
      <point x="204.0" y="29.0" type="curve" smooth="yes"/>
      <point x="204.0" y="14.0"/>
      <point x="191.0" y="0.0"/>
      <point x="174.0" y="0.0" type="curve" smooth="yes"/>
      <point x="159.0" y="0.0"/>
      <point x="145.0" y="14.0"/>
      <point x="145.0" y="29.0" type="curve" smooth="yes"/>
      <point x="145.0" y="46.0"/>
      <point x="159.0" y="58.0"/>
      <point x="174.0" y="58.0" type="curve" smooth="yes"/>
      <point x="191.0" y="58.0"/>
      <point x="204.0" y="46.0"/>
    </contour>
    <contour>
      <point x="274" y="375" type="curve" smooth="yes"/>
      <point x="274" y="358"/>
      <point x="260" y="346"/>
      <point x="244" y="346" type="curve" smooth="yes"/>
      <point x="228" y="346"/>
      <point x="215" y="358"/>
      <point x="215" y="375" type="curve" smooth="yes"/>
      <point x="215" y="392"/>
      <point x="228" y="404"/>
      <point x="244" y="404" type="curve" smooth="yes"/>
      <point x="260" y="404"/>
      <point x="274" y="392"/>
    </contour>
    <contour>
      <point x="414.0" y="29.0" type="curve" smooth="yes"/>
      <point x="414.0" y="14.0"/>
      <point x="400.0" y="0.0"/>
      <point x="384.0" y="0.0" type="curve" smooth="yes"/>
      <point x="367.0" y="0.0"/>
      <point x="355.0" y="14.0"/>
      <point x="355.0" y="29.0" type="curve" smooth="yes"/>
      <point x="355.0" y="46.0"/>
      <point x="367.0" y="58.0"/>
      <point x="384.0" y="58.0" type="curve" smooth="yes"/>
      <point x="400.0" y="58.0"/>
      <point x="414.0" y="46.0"/>
    </contour>
    <contour>
      <point x="344" y="306" type="curve" smooth="yes"/>
      <point x="344" y="290"/>
      <point x="330" y="277"/>
      <point x="314" y="277" type="curve" smooth="yes"/>
      <point x="297" y="277"/>
      <point x="285" y="290"/>
      <point x="285" y="306" type="curve" smooth="yes"/>
      <point x="285" y="323"/>
      <point x="297" y="335"/>
      <point x="314" y="335" type="curve" smooth="yes"/>
      <point x="330" y="335"/>
      <point x="344" y="323"/>
    </contour>
    <contour>
      <point x="484.0" y="582.0" type="curve" smooth="yes"/>
      <point x="484.0" y="566.0"/>
      <point x="470.0" y="553.0"/>
      <point x="454.0" y="553.0" type="curve" smooth="yes"/>
      <point x="437.0" y="553.0"/>
      <point x="425.0" y="566.0"/>
      <point x="425.0" y="582.0" type="curve" smooth="yes"/>
      <point x="425.0" y="598.0"/>
      <point x="437.0" y="611.0"/>
      <point x="454.0" y="611.0" type="curve" smooth="yes"/>
      <point x="470.0" y="611.0"/>
      <point x="484.0" y="598.0"/>
    </contour>
    <contour>
      <point x="64" y="651" type="curve" smooth="yes"/>
      <point x="64" y="635"/>
      <point x="51" y="622"/>
      <point x="34" y="622" type="curve" smooth="yes"/>
      <point x="19" y="622"/>
      <point x="5" y="635"/>
      <point x="5" y="651" type="curve" smooth="yes"/>
      <point x="5" y="667"/>
      <point x="19" y="681"/>
      <point x="34" y="681" type="curve" smooth="yes"/>
      <point x="51" y="681"/>
      <point x="64" y="667"/>
    </contour>
    <contour>
      <point x="344.0" y="29.0" type="curve" smooth="yes"/>
      <point x="344.0" y="14.0"/>
      <point x="330.0" y="0.0"/>
      <point x="314.0" y="0.0" type="curve" smooth="yes"/>
      <point x="298.0" y="0.0"/>
      <point x="285.0" y="14.0"/>
      <point x="285.0" y="29.0" type="curve" smooth="yes"/>
      <point x="285.0" y="46.0"/>
      <point x="298.0" y="58.0"/>
      <point x="314.0" y="58.0" type="curve" smooth="yes"/>
      <point x="330.0" y="58.0"/>
      <point x="344.0" y="46.0"/>
    </contour>
    <contour>
      <point x="484" y="167" type="curve" smooth="yes"/>
      <point x="484" y="152"/>
      <point x="470" y="138"/>
      <point x="454" y="138" type="curve" smooth="yes"/>
      <point x="437" y="138"/>
      <point x="425" y="152"/>
      <point x="425" y="167" type="curve" smooth="yes"/>
      <point x="425" y="184"/>
      <point x="437" y="197"/>
      <point x="454" y="197" type="curve" smooth="yes"/>
      <point x="470" y="197"/>
      <point x="484" y="184"/>
    </contour>
    <contour>
      <point x="274.0" y="29.0" type="curve" smooth="yes"/>
      <point x="274.0" y="14.0"/>
      <point x="261.0" y="0.0"/>
      <point x="244.0" y="0.0" type="curve" smooth="yes"/>
      <point x="228.0" y="0.0"/>
      <point x="215.0" y="14.0"/>
      <point x="215.0" y="29.0" type="curve" smooth="yes"/>
      <point x="215.0" y="46.0"/>
      <point x="228.0" y="58.0"/>
      <point x="244.0" y="58.0" type="curve" smooth="yes"/>
      <point x="261.0" y="58.0"/>
      <point x="274.0" y="46.0"/>
    </contour>
    <contour>
      <point x="64" y="237" type="curve" smooth="yes"/>
      <point x="64" y="221"/>
      <point x="50" y="208"/>
      <point x="34" y="208" type="curve" smooth="yes"/>
      <point x="17" y="208"/>
      <point x="5" y="221"/>
      <point x="5" y="237" type="curve" smooth="yes"/>
      <point x="5" y="253"/>
      <point x="17" y="266"/>
      <point x="34" y="266" type="curve" smooth="yes"/>
      <point x="50" y="266"/>
      <point x="64" y="253"/>
    </contour>
    <contour>
      <point x="484.0" y="651.0" type="curve" smooth="yes"/>
      <point x="484.0" y="635.0"/>
      <point x="470.0" y="622.0"/>
      <point x="454.0" y="622.0" type="curve" smooth="yes"/>
      <point x="437.0" y="622.0"/>
      <point x="425.0" y="635.0"/>
      <point x="425.0" y="651.0" type="curve" smooth="yes"/>
      <point x="425.0" y="667.0"/>
      <point x="437.0" y="681.0"/>
      <point x="454.0" y="681.0" type="curve" smooth="yes"/>
      <point x="470.0" y="681.0"/>
      <point x="484.0" y="667.0"/>
    </contour>
    <contour>
      <point x="134" y="721" type="curve" smooth="yes"/>
      <point x="134" y="704"/>
      <point x="121" y="691"/>
      <point x="104" y="691" type="curve" smooth="yes"/>
      <point x="89" y="691"/>
      <point x="75" y="704"/>
      <point x="75" y="721" type="curve" smooth="yes"/>
      <point x="75" y="736"/>
      <point x="89" y="750"/>
      <point x="104" y="750" type="curve" smooth="yes"/>
      <point x="121" y="750"/>
      <point x="134" y="736"/>
    </contour>
    <contour>
      <point x="134" y="513" type="curve" smooth="yes"/>
      <point x="134" y="496"/>
      <point x="121" y="484"/>
      <point x="104" y="484" type="curve" smooth="yes"/>
      <point x="89" y="484"/>
      <point x="75" y="496"/>
      <point x="75" y="513" type="curve" smooth="yes"/>
      <point x="75" y="530"/>
      <point x="89" y="542"/>
      <point x="104" y="542" type="curve" smooth="yes"/>
      <point x="121" y="542"/>
      <point x="134" y="530"/>
    </contour>
    <contour>
      <point x="204" y="444" type="curve" smooth="yes"/>
      <point x="204" y="428"/>
      <point x="191" y="415"/>
      <point x="174" y="415" type="curve" smooth="yes"/>
      <point x="159" y="415"/>
      <point x="145" y="428"/>
      <point x="145" y="444" type="curve" smooth="yes"/>
      <point x="145" y="461"/>
      <point x="159" y="473"/>
      <point x="174" y="473" type="curve" smooth="yes"/>
      <point x="191" y="473"/>
      <point x="204" y="461"/>
    </contour>
    <contour>
      <point x="204" y="721" type="curve" smooth="yes"/>
      <point x="204" y="704"/>
      <point x="191" y="691"/>
      <point x="174" y="691" type="curve" smooth="yes"/>
      <point x="158" y="691"/>
      <point x="145" y="704"/>
      <point x="145" y="721" type="curve" smooth="yes"/>
      <point x="145" y="736"/>
      <point x="158" y="750"/>
      <point x="174" y="750" type="curve" smooth="yes"/>
      <point x="191" y="750"/>
      <point x="204" y="736"/>
    </contour>
  </outline>
</glyph>
<glyph name="V" format="1">
  <advance width="560"/>
  <unicode hex="0056"/>
  <outline>
    <contour>
      <point x="64" y="445" type="curve" smooth="yes"/>
      <point x="64" y="429"/>
      <point x="51" y="416"/>
      <point x="34" y="416" type="curve" smooth="yes"/>
      <point x="19" y="416"/>
      <point x="5" y="429"/>
      <point x="5" y="445" type="curve" smooth="yes"/>
      <point x="5" y="461"/>
      <point x="19" y="474"/>
      <point x="34" y="474" type="curve" smooth="yes"/>
      <point x="51" y="474"/>
      <point x="64" y="461"/>
    </contour>
    <contour>
      <point x="134" y="307" type="curve" smooth="yes"/>
      <point x="134" y="291"/>
      <point x="121" y="277"/>
      <point x="104" y="277" type="curve" smooth="yes"/>
      <point x="89" y="277"/>
      <point x="75" y="291"/>
      <point x="75" y="307" type="curve" smooth="yes"/>
      <point x="75" y="323"/>
      <point x="89" y="336"/>
      <point x="104" y="336" type="curve" smooth="yes"/>
      <point x="121" y="336"/>
      <point x="134" y="323"/>
    </contour>
    <contour>
      <point x="64" y="652" type="curve" smooth="yes"/>
      <point x="64" y="636"/>
      <point x="51" y="623"/>
      <point x="34" y="623" type="curve" smooth="yes"/>
      <point x="19" y="623"/>
      <point x="5" y="636"/>
      <point x="5" y="652" type="curve" smooth="yes"/>
      <point x="5" y="668"/>
      <point x="19" y="681"/>
      <point x="34" y="681" type="curve" smooth="yes"/>
      <point x="51" y="681"/>
      <point x="64" y="668"/>
    </contour>
    <contour>
      <point x="204" y="237" type="curve" smooth="yes"/>
      <point x="204" y="222"/>
      <point x="191" y="208"/>
      <point x="174" y="208" type="curve" smooth="yes"/>
      <point x="159" y="208"/>
      <point x="145" y="222"/>
      <point x="145" y="237" type="curve" smooth="yes"/>
      <point x="145" y="254"/>
      <point x="159" y="267"/>
      <point x="174" y="267" type="curve" smooth="yes"/>
      <point x="191" y="267"/>
      <point x="204" y="254"/>
    </contour>
    <contour>
      <point x="484" y="514" type="curve" smooth="yes"/>
      <point x="484" y="498"/>
      <point x="470" y="485"/>
      <point x="454" y="485" type="curve" smooth="yes"/>
      <point x="437" y="485"/>
      <point x="425" y="498"/>
      <point x="425" y="514" type="curve" smooth="yes"/>
      <point x="425" y="531"/>
      <point x="437" y="543"/>
      <point x="454" y="543" type="curve" smooth="yes"/>
      <point x="470" y="543"/>
      <point x="484" y="531"/>
    </contour>
    <contour>
      <point x="344" y="237" type="curve" smooth="yes"/>
      <point x="344" y="222"/>
      <point x="330" y="208"/>
      <point x="314" y="208" type="curve" smooth="yes"/>
      <point x="298" y="208"/>
      <point x="285" y="222"/>
      <point x="285" y="237" type="curve" smooth="yes"/>
      <point x="285" y="254"/>
      <point x="298" y="267"/>
      <point x="314" y="267" type="curve" smooth="yes"/>
      <point x="330" y="267"/>
      <point x="344" y="254"/>
    </contour>
    <contour>
      <point x="64" y="721" type="curve" smooth="yes"/>
      <point x="64" y="705"/>
      <point x="51" y="692"/>
      <point x="34" y="692" type="curve" smooth="yes"/>
      <point x="19" y="692"/>
      <point x="5" y="705"/>
      <point x="5" y="721" type="curve" smooth="yes"/>
      <point x="5" y="737"/>
      <point x="19" y="750"/>
      <point x="34" y="750" type="curve" smooth="yes"/>
      <point x="51" y="750"/>
      <point x="64" y="737"/>
    </contour>
    <contour>
      <point x="64" y="583" type="curve" smooth="yes"/>
      <point x="64" y="566"/>
      <point x="51" y="554"/>
      <point x="34" y="554" type="curve" smooth="yes"/>
      <point x="19" y="554"/>
      <point x="5" y="566"/>
      <point x="5" y="583" type="curve" smooth="yes"/>
      <point x="5" y="600"/>
      <point x="19" y="612"/>
      <point x="34" y="612" type="curve" smooth="yes"/>
      <point x="51" y="612"/>
      <point x="64" y="600"/>
    </contour>
    <contour>
      <point x="64" y="514" type="curve" smooth="yes"/>
      <point x="64" y="498"/>
      <point x="51" y="485"/>
      <point x="34" y="485" type="curve" smooth="yes"/>
      <point x="19" y="485"/>
      <point x="5" y="498"/>
      <point x="5" y="514" type="curve" smooth="yes"/>
      <point x="5" y="531"/>
      <point x="19" y="543"/>
      <point x="34" y="543" type="curve" smooth="yes"/>
      <point x="51" y="543"/>
      <point x="64" y="531"/>
    </contour>
    <contour>
      <point x="484" y="652" type="curve" smooth="yes"/>
      <point x="484" y="636"/>
      <point x="470" y="623"/>
      <point x="454" y="623" type="curve" smooth="yes"/>
      <point x="437" y="623"/>
      <point x="425" y="636"/>
      <point x="425" y="652" type="curve" smooth="yes"/>
      <point x="425" y="668"/>
      <point x="437" y="681"/>
      <point x="454" y="681" type="curve" smooth="yes"/>
      <point x="470" y="681"/>
      <point x="484" y="668"/>
    </contour>
    <contour>
      <point x="484" y="583" type="curve" smooth="yes"/>
      <point x="484" y="566"/>
      <point x="470" y="554"/>
      <point x="454" y="554" type="curve" smooth="yes"/>
      <point x="437" y="554"/>
      <point x="425" y="566"/>
      <point x="425" y="583" type="curve" smooth="yes"/>
      <point x="425" y="600"/>
      <point x="437" y="612"/>
      <point x="454" y="612" type="curve" smooth="yes"/>
      <point x="470" y="612"/>
      <point x="484" y="600"/>
    </contour>
    <contour>
      <point x="484" y="445" type="curve" smooth="yes"/>
      <point x="484" y="429"/>
      <point x="470" y="416"/>
      <point x="454" y="416" type="curve" smooth="yes"/>
      <point x="437" y="416"/>
      <point x="425" y="429"/>
      <point x="425" y="445" type="curve" smooth="yes"/>
      <point x="425" y="461"/>
      <point x="437" y="474"/>
      <point x="454" y="474" type="curve" smooth="yes"/>
      <point x="470" y="474"/>
      <point x="484" y="461"/>
    </contour>
    <contour>
      <point x="274" y="30" type="curve" smooth="yes"/>
      <point x="274" y="15"/>
      <point x="261" y="1"/>
      <point x="244" y="1" type="curve" smooth="yes"/>
      <point x="228" y="1"/>
      <point x="215" y="15"/>
      <point x="215" y="30" type="curve" smooth="yes"/>
      <point x="215" y="47"/>
      <point x="228" y="59"/>
      <point x="244" y="59" type="curve" smooth="yes"/>
      <point x="261" y="59"/>
      <point x="274" y="47"/>
    </contour>
    <contour>
      <point x="134" y="376" type="curve" smooth="yes"/>
      <point x="134" y="360"/>
      <point x="121" y="347"/>
      <point x="104" y="347" type="curve" smooth="yes"/>
      <point x="89" y="347"/>
      <point x="75" y="360"/>
      <point x="75" y="376" type="curve" smooth="yes"/>
      <point x="75" y="392"/>
      <point x="89" y="405"/>
      <point x="104" y="405" type="curve" smooth="yes"/>
      <point x="121" y="405"/>
      <point x="134" y="392"/>
    </contour>
    <contour>
      <point x="344" y="168" type="curve" smooth="yes"/>
      <point x="344" y="153"/>
      <point x="330" y="139"/>
      <point x="314" y="139" type="curve" smooth="yes"/>
      <point x="298" y="139"/>
      <point x="285" y="153"/>
      <point x="285" y="168" type="curve" smooth="yes"/>
      <point x="285" y="185"/>
      <point x="298" y="197"/>
      <point x="314" y="197" type="curve" smooth="yes"/>
      <point x="330" y="197"/>
      <point x="344" y="185"/>
    </contour>
    <contour>
      <point x="414" y="376" type="curve" smooth="yes"/>
      <point x="414" y="360"/>
      <point x="400" y="347"/>
      <point x="384" y="347" type="curve" smooth="yes"/>
      <point x="367" y="347"/>
      <point x="355" y="360"/>
      <point x="355" y="376" type="curve" smooth="yes"/>
      <point x="355" y="392"/>
      <point x="367" y="405"/>
      <point x="384" y="405" type="curve" smooth="yes"/>
      <point x="400" y="405"/>
      <point x="414" y="392"/>
    </contour>
    <contour>
      <point x="484" y="721" type="curve" smooth="yes"/>
      <point x="484" y="705"/>
      <point x="470" y="692"/>
      <point x="454" y="692" type="curve" smooth="yes"/>
      <point x="437" y="692"/>
      <point x="425" y="705"/>
      <point x="425" y="721" type="curve" smooth="yes"/>
      <point x="425" y="737"/>
      <point x="437" y="750"/>
      <point x="454" y="750" type="curve" smooth="yes"/>
      <point x="470" y="750"/>
      <point x="484" y="737"/>
    </contour>
    <contour>
      <point x="414" y="307" type="curve" smooth="yes"/>
      <point x="414" y="291"/>
      <point x="400" y="277"/>
      <point x="384" y="277" type="curve" smooth="yes"/>
      <point x="367" y="277"/>
      <point x="355" y="291"/>
      <point x="355" y="307" type="curve" smooth="yes"/>
      <point x="355" y="323"/>
      <point x="367" y="336"/>
      <point x="384" y="336" type="curve" smooth="yes"/>
      <point x="400" y="336"/>
      <point x="414" y="323"/>
    </contour>
    <contour>
      <point x="204" y="168" type="curve" smooth="yes"/>
      <point x="204" y="153"/>
      <point x="191" y="139"/>
      <point x="174" y="139" type="curve" smooth="yes"/>
      <point x="159" y="139"/>
      <point x="145" y="153"/>
      <point x="145" y="168" type="curve" smooth="yes"/>
      <point x="145" y="185"/>
      <point x="159" y="197"/>
      <point x="174" y="197" type="curve" smooth="yes"/>
      <point x="191" y="197"/>
      <point x="204" y="185"/>
    </contour>
    <contour>
      <point x="274" y="99" type="curve" smooth="yes"/>
      <point x="274" y="84"/>
      <point x="261" y="70"/>
      <point x="244" y="70" type="curve" smooth="yes"/>
      <point x="228" y="70"/>
      <point x="215" y="84"/>
      <point x="215" y="99" type="curve" smooth="yes"/>
      <point x="215" y="116"/>
      <point x="228" y="129"/>
      <point x="244" y="129" type="curve" smooth="yes"/>
      <point x="261" y="129"/>
      <point x="274" y="116"/>
    </contour>
  </outline>
</glyph>
<glyph name="A.mod03" format="1">
  <advance width="0"/>
  <outline>
    <contour>
      <point x="34.0" y="554.0" type="curve" smooth="yes"/>
      <point x="19.0" y="554.0"/>
      <point x="5.0" y="567.0"/>
      <point x="5.0" y="583.0" type="curve" smooth="yes"/>
      <point x="5.0" y="599.0"/>
      <point x="19.0" y="612.0"/>
      <point x="34.0" y="612.0" type="curve" smooth="yes"/>
      <point x="51.0" y="612.0"/>
      <point x="64.0" y="599.0"/>
      <point x="64.0" y="583.0" type="curve" smooth="yes"/>
      <point x="64.0" y="567.0"/>
      <point x="51.0" y="554.0"/>
    </contour>
    <contour>
      <point x="484.0" y="582.0" type="curve" smooth="yes"/>
      <point x="484.0" y="566.0"/>
      <point x="470.0" y="553.0"/>
      <point x="454.0" y="553.0" type="curve" smooth="yes"/>
      <point x="437.0" y="553.0"/>
      <point x="425.0" y="566.0"/>
      <point x="425.0" y="582.0" type="curve" smooth="yes"/>
      <point x="425.0" y="598.0"/>
      <point x="437.0" y="611.0"/>
      <point x="454.0" y="611.0" type="curve" smooth="yes"/>
      <point x="470.0" y="611.0"/>
      <point x="484.0" y="598.0"/>
    </contour>
  </outline>
</glyph>
<glyph name="C.mod04" format="1">
  <advance width="0"/>
  <outline>
    <contour>
      <point x="64.0" y="513.0" type="curve" smooth="yes"/>
      <point x="64.0" y="497.0"/>
      <point x="51.0" y="484.0"/>
      <point x="34.0" y="484.0" type="curve" smooth="yes"/>
      <point x="19.0" y="484.0"/>
      <point x="5.0" y="497.0"/>
      <point x="5.0" y="513.0" type="curve" smooth="yes"/>
      <point x="5.0" y="529.0"/>
      <point x="19.0" y="542.0"/>
      <point x="34.0" y="542.0" type="curve" smooth="yes"/>
      <point x="51.0" y="542.0"/>
      <point x="64.0" y="529.0"/>
    </contour>
    <contour>
      <point x="484.0" y="513.0" type="curve" smooth="yes"/>
      <point x="484.0" y="497.0"/>
      <point x="470.0" y="484.0"/>
      <point x="454.0" y="484.0" type="curve" smooth="yes"/>
      <point x="437.0" y="484.0"/>
      <point x="425.0" y="497.0"/>
      <point x="425.0" y="513.0" type="curve" smooth="yes"/>
      <point x="425.0" y="529.0"/>
      <point x="437.0" y="542.0"/>
      <point x="454.0" y="542.0" type="curve" smooth="yes"/>
      <point x="470.0" y="542.0"/>
      <point x="484.0" y="529.0"/>
    </contour>
  </outline>
</glyph>
<glyph name="E.mod01" format="1">
  <advance width="0"/>
  <outline>
    <contour>
      <point x="383" y="691" type="curve" smooth="yes"/>
      <point x="366" y="691"/>
      <point x="354" y="704"/>
      <point x="354" y="721" type="curve" smooth="yes"/>
      <point x="354" y="736"/>
      <point x="366" y="750"/>
      <point x="383" y="750" type="curve" smooth="yes"/>
      <point x="399" y="750"/>
      <point x="413" y="736"/>
      <point x="413" y="721" type="curve" smooth="yes"/>
      <point x="413" y="704"/>
      <point x="399" y="691"/>
    </contour>
    <contour>
      <point x="313" y="691" type="curve" smooth="yes"/>
      <point x="297" y="691"/>
      <point x="284" y="704"/>
      <point x="284" y="721" type="curve" smooth="yes"/>
      <point x="284" y="736"/>
      <point x="297" y="750"/>
      <point x="313" y="750" type="curve" smooth="yes"/>
      <point x="329" y="750"/>
      <point x="343" y="736"/>
      <point x="343" y="721" type="curve" smooth="yes"/>
      <point x="343" y="704"/>
      <point x="329" y="691"/>
    </contour>
    <contour>
      <point x="453" y="691" type="curve" smooth="yes"/>
      <point x="436" y="691"/>
      <point x="424" y="704"/>
      <point x="424" y="721" type="curve" smooth="yes"/>
      <point x="424" y="736"/>
      <point x="436" y="750"/>
      <point x="453" y="750" type="curve" smooth="yes"/>
      <point x="469" y="750"/>
      <point x="483" y="736"/>
      <point x="483" y="721" type="curve" smooth="yes"/>
      <point x="483" y="704"/>
      <point x="469" y="691"/>
    </contour>
    <contour>
      <point x="274" y="721" type="curve" smooth="yes"/>
      <point x="274" y="704"/>
      <point x="260" y="691"/>
      <point x="244" y="691" type="curve" smooth="yes"/>
      <point x="228" y="691"/>
      <point x="215" y="704"/>
      <point x="215" y="721" type="curve" smooth="yes"/>
      <point x="215" y="736"/>
      <point x="228" y="750"/>
      <point x="244" y="750" type="curve" smooth="yes"/>
      <point x="260" y="750"/>
      <point x="274" y="736"/>
    </contour>
    <contour>
      <point x="64" y="721" type="curve" smooth="yes"/>
      <point x="64" y="704"/>
      <point x="51" y="691"/>
      <point x="34" y="691" type="curve" smooth="yes"/>
      <point x="19" y="691"/>
      <point x="5" y="704"/>
      <point x="5" y="721" type="curve" smooth="yes"/>
      <point x="5" y="736"/>
      <point x="19" y="750"/>
      <point x="34" y="750" type="curve" smooth="yes"/>
      <point x="51" y="750"/>
      <point x="64" y="736"/>
    </contour>
    <contour>
      <point x="134" y="721" type="curve" smooth="yes"/>
      <point x="134" y="704"/>
      <point x="121" y="691"/>
      <point x="104" y="691" type="curve" smooth="yes"/>
      <point x="89" y="691"/>
      <point x="75" y="704"/>
      <point x="75" y="721" type="curve" smooth="yes"/>
      <point x="75" y="736"/>
      <point x="89" y="750"/>
      <point x="104" y="750" type="curve" smooth="yes"/>
      <point x="121" y="750"/>
      <point x="134" y="736"/>
    </contour>
    <contour>
      <point x="204" y="721" type="curve" smooth="yes"/>
      <point x="204" y="704"/>
      <point x="191" y="691"/>
      <point x="174" y="691" type="curve" smooth="yes"/>
      <point x="158" y="691"/>
      <point x="145" y="704"/>
      <point x="145" y="721" type="curve" smooth="yes"/>
      <point x="145" y="736"/>
      <point x="158" y="750"/>
      <point x="174" y="750" type="curve" smooth="yes"/>
      <point x="191" y="750"/>
      <point x="204" y="736"/>
    </contour>
  </outline>
</glyph>
<glyph name="E.mod07" format="1">
  <advance width="0"/>
  <outline>
    <contour>
      <point x="64.0" y="306.0" type="curve" smooth="yes"/>
      <point x="64.0" y="290.0"/>
      <point x="51.0" y="277.0"/>
      <point x="34.0" y="277.0" type="curve" smooth="yes"/>
      <point x="19.0" y="277.0"/>
      <point x="5.0" y="290.0"/>
      <point x="5.0" y="306.0" type="curve" smooth="yes"/>
      <point x="5.0" y="322.0"/>
      <point x="19.0" y="335.0"/>
      <point x="34.0" y="335.0" type="curve" smooth="yes"/>
      <point x="51.0" y="335.0"/>
      <point x="64.0" y="322.0"/>
    </contour>
  </outline>
</glyph>
<glyph name="G.mod05" format="1">
  <advance width="0"/>
  <outline>
    <contour>
      <point x="414.0" y="444.0" type="curve" smooth="yes"/>
      <point x="414.0" y="427.0"/>
      <point x="400.0" y="415.0"/>
      <point x="384.0" y="415.0" type="curve" smooth="yes"/>
      <point x="367.0" y="415.0"/>
      <point x="355.0" y="427.0"/>
      <point x="355.0" y="444.0" type="curve" smooth="yes"/>
      <point x="355.0" y="461.0"/>
      <point x="367.0" y="473.0"/>
      <point x="384.0" y="473.0" type="curve" smooth="yes"/>
      <point x="400.0" y="473.0"/>
      <point x="414.0" y="461.0"/>
    </contour>
    <contour>
      <point x="344.0" y="444.0" type="curve" smooth="yes"/>
      <point x="344.0" y="427.0"/>
      <point x="330.0" y="415.0"/>
      <point x="314.0" y="415.0" type="curve" smooth="yes"/>
      <point x="298.0" y="415.0"/>
      <point x="285.0" y="427.0"/>
      <point x="285.0" y="444.0" type="curve" smooth="yes"/>
      <point x="285.0" y="461.0"/>
      <point x="298.0" y="473.0"/>
      <point x="314.0" y="473.0" type="curve" smooth="yes"/>
      <point x="330.0" y="473.0"/>
      <point x="344.0" y="461.0"/>
    </contour>
    <contour>
      <point x="64.0" y="444.0" type="curve" smooth="yes"/>
      <point x="64.0" y="427.0"/>
      <point x="51.0" y="415.0"/>
      <point x="34.0" y="415.0" type="curve" smooth="yes"/>
      <point x="19.0" y="415.0"/>
      <point x="5.0" y="427.0"/>
      <point x="5.0" y="444.0" type="curve" smooth="yes"/>
      <point x="5.0" y="461.0"/>
      <point x="19.0" y="473.0"/>
      <point x="34.0" y="473.0" type="curve" smooth="yes"/>
      <point x="51.0" y="473.0"/>
      <point x="64.0" y="461.0"/>
    </contour>
  </outline>
</glyph>
<glyph name="J.mod10" format="1">
  <advance width="0"/>
  <outline>
    <contour>
      <point x="34" y="69" type="curve" smooth="yes"/>
      <point x="17" y="69"/>
      <point x="5" y="83"/>
      <point x="5" y="98" type="curve" smooth="yes"/>
      <point x="5" y="115"/>
      <point x="17" y="128"/>
      <point x="34" y="128" type="curve" smooth="yes"/>
      <point x="50" y="128"/>
      <point x="64" y="115"/>
      <point x="64" y="98" type="curve" smooth="yes"/>
      <point x="64" y="83"/>
      <point x="50" y="69"/>
    </contour>
    <contour>
      <point x="414" y="98" type="curve" smooth="yes"/>
      <point x="414" y="83"/>
      <point x="400" y="69"/>
      <point x="384" y="69" type="curve" smooth="yes"/>
      <point x="367" y="69"/>
      <point x="355" y="83"/>
      <point x="355" y="98" type="curve" smooth="yes"/>
      <point x="355" y="115"/>
      <point x="367" y="127"/>
      <point x="384" y="127" type="curve" smooth="yes"/>
      <point x="400" y="127"/>
      <point x="414" y="115"/>
    </contour>
  </outline>
</glyph>
<glyph name="K.mod04" format="1">
  <advance width="0"/>
  <outline>
    <contour>
      <point x="64.0" y="513.0" type="curve" smooth="yes"/>
      <point x="64.0" y="497.0"/>
      <point x="51.0" y="484.0"/>
      <point x="34.0" y="484.0" type="curve" smooth="yes"/>
      <point x="19.0" y="484.0"/>
      <point x="5.0" y="497.0"/>
      <point x="5.0" y="513.0" type="curve" smooth="yes"/>
      <point x="5.0" y="529.0"/>
      <point x="19.0" y="542.0"/>
      <point x="34.0" y="542.0" type="curve" smooth="yes"/>
      <point x="51.0" y="542.0"/>
      <point x="64.0" y="529.0"/>
    </contour>
    <contour>
      <point x="414.0" y="513.0" type="curve" smooth="yes"/>
      <point x="414.0" y="497.0"/>
      <point x="400.0" y="484.0"/>
      <point x="384.0" y="484.0" type="curve" smooth="yes"/>
      <point x="367.0" y="484.0"/>
      <point x="355.0" y="497.0"/>
      <point x="355.0" y="513.0" type="curve" smooth="yes"/>
      <point x="355.0" y="529.0"/>
      <point x="367.0" y="542.0"/>
      <point x="384.0" y="542.0" type="curve" smooth="yes"/>
      <point x="400.0" y="542.0"/>
      <point x="414.0" y="529.0"/>
    </contour>
  </outline>
</glyph>
<glyph name="K.mod05" format="1">
  <advance width="0"/>
  <outline>
    <contour>
      <point x="344.0" y="444.0" type="curve" smooth="yes"/>
      <point x="344.0" y="427.0"/>
      <point x="330.0" y="415.0"/>
      <point x="314.0" y="415.0" type="curve" smooth="yes"/>
      <point x="298.0" y="415.0"/>
      <point x="285.0" y="427.0"/>
      <point x="285.0" y="444.0" type="curve" smooth="yes"/>
      <point x="285.0" y="461.0"/>
      <point x="298.0" y="473.0"/>
      <point x="314.0" y="473.0" type="curve" smooth="yes"/>
      <point x="330.0" y="473.0"/>
      <point x="344.0" y="461.0"/>
    </contour>
    <contour>
      <point x="274.0" y="444.0" type="curve" smooth="yes"/>
      <point x="274.0" y="427.0"/>
      <point x="261.0" y="415.0"/>
      <point x="244.0" y="415.0" type="curve" smooth="yes"/>
      <point x="228.0" y="415.0"/>
      <point x="215.0" y="427.0"/>
      <point x="215.0" y="444.0" type="curve" smooth="yes"/>
      <point x="215.0" y="461.0"/>
      <point x="228.0" y="473.0"/>
      <point x="244.0" y="473.0" type="curve" smooth="yes"/>
      <point x="261.0" y="473.0"/>
      <point x="274.0" y="461.0"/>
    </contour>
    <contour>
      <point x="134.0" y="444.0" type="curve" smooth="yes"/>
      <point x="134.0" y="427.0"/>
      <point x="121.0" y="415.0"/>
      <point x="104.0" y="415.0" type="curve" smooth="yes"/>
      <point x="89.0" y="415.0"/>
      <point x="75.0" y="427.0"/>
      <point x="75.0" y="444.0" type="curve" smooth="yes"/>
      <point x="75.0" y="461.0"/>
      <point x="89.0" y="473.0"/>
      <point x="104.0" y="473.0" type="curve" smooth="yes"/>
      <point x="121.0" y="473.0"/>
      <point x="134.0" y="461.0"/>
    </contour>
    <contour>
      <point x="64.0" y="444.0" type="curve" smooth="yes"/>
      <point x="64.0" y="427.0"/>
      <point x="51.0" y="415.0"/>
      <point x="34.0" y="415.0" type="curve" smooth="yes"/>
      <point x="19.0" y="415.0"/>
      <point x="5.0" y="427.0"/>
      <point x="5.0" y="444.0" type="curve" smooth="yes"/>
      <point x="5.0" y="461.0"/>
      <point x="19.0" y="473.0"/>
      <point x="34.0" y="473.0" type="curve" smooth="yes"/>
      <point x="51.0" y="473.0"/>
      <point x="64.0" y="461.0"/>
    </contour>
    <contour>
      <point x="204.0" y="444.0" type="curve" smooth="yes"/>
      <point x="204.0" y="427.0"/>
      <point x="191.0" y="415.0"/>
      <point x="174.0" y="415.0" type="curve" smooth="yes"/>
      <point x="159.0" y="415.0"/>
      <point x="145.0" y="427.0"/>
      <point x="145.0" y="444.0" type="curve" smooth="yes"/>
      <point x="145.0" y="461.0"/>
      <point x="159.0" y="473.0"/>
      <point x="174.0" y="473.0" type="curve" smooth="yes"/>
      <point x="191.0" y="473.0"/>
      <point x="204.0" y="461.0"/>
    </contour>
  </outline>
</glyph>
<glyph name="M.mod04" format="1">
  <advance width="0"/>
  <outline>
    <contour>
      <point x="274" y="513" type="curve" smooth="yes"/>
      <point x="274" y="497"/>
      <point x="261" y="484"/>
      <point x="244" y="484" type="curve" smooth="yes"/>
      <point x="228" y="484"/>
      <point x="215" y="497"/>
      <point x="215" y="513" type="curve" smooth="yes"/>
      <point x="215" y="529"/>
      <point x="228" y="542"/>
      <point x="244" y="542" type="curve" smooth="yes"/>
      <point x="261" y="542"/>
      <point x="274" y="529"/>
    </contour>
    <contour>
      <point x="64.0" y="513.0" type="curve" smooth="yes"/>
      <point x="64.0" y="497.0"/>
      <point x="51.0" y="484.0"/>
      <point x="34.0" y="484.0" type="curve" smooth="yes"/>
      <point x="19.0" y="484.0"/>
      <point x="5.0" y="497.0"/>
      <point x="5.0" y="513.0" type="curve" smooth="yes"/>
      <point x="5.0" y="529.0"/>
      <point x="19.0" y="542.0"/>
      <point x="34.0" y="542.0" type="curve" smooth="yes"/>
      <point x="51.0" y="542.0"/>
      <point x="64.0" y="529.0"/>
    </contour>
    <contour>
      <point x="484.0" y="513.0" type="curve" smooth="yes"/>
      <point x="484.0" y="497.0"/>
      <point x="470.0" y="484.0"/>
      <point x="454.0" y="484.0" type="curve" smooth="yes"/>
      <point x="437.0" y="484.0"/>
      <point x="425.0" y="497.0"/>
      <point x="425.0" y="513.0" type="curve" smooth="yes"/>
      <point x="425.0" y="529.0"/>
      <point x="437.0" y="542.0"/>
      <point x="454.0" y="542.0" type="curve" smooth="yes"/>
      <point x="470.0" y="542.0"/>
      <point x="484.0" y="529.0"/>
    </contour>
  </outline>
</glyph>
<glyph name="N.mod10" format="1">
  <advance width="0"/>
  <outline>
    <contour>
      <point x="64.0" y="98.0" type="curve" smooth="yes"/>
      <point x="64.0" y="83.0"/>
      <point x="51.0" y="69.0"/>
      <point x="34.0" y="69.0" type="curve" smooth="yes"/>
      <point x="19.0" y="69.0"/>
      <point x="5.0" y="83.0"/>
      <point x="5.0" y="98.0" type="curve" smooth="yes"/>
      <point x="5.0" y="115.0"/>
      <point x="19.0" y="128.0"/>
      <point x="34.0" y="128.0" type="curve" smooth="yes"/>
      <point x="51.0" y="128.0"/>
      <point x="64.0" y="115.0"/>
    </contour>
    <contour>
      <point x="484.0" y="98.0" type="curve" smooth="yes"/>
      <point x="484.0" y="83.0"/>
      <point x="470.0" y="69.0"/>
      <point x="454.0" y="69.0" type="curve" smooth="yes"/>
      <point x="437.0" y="69.0"/>
      <point x="425.0" y="83.0"/>
      <point x="425.0" y="98.0" type="curve" smooth="yes"/>
      <point x="425.0" y="115.0"/>
      <point x="437.0" y="128.0"/>
      <point x="454.0" y="128.0" type="curve" smooth="yes"/>
      <point x="470.0" y="128.0"/>
      <point x="484.0" y="115.0"/>
    </contour>
  </outline>
</glyph>
<glyph name="P.mod11" format="1">
  <advance width="560"/>
  <outline>
    <contour>
      <point x="64.0" y="29.0" type="curve" smooth="yes"/>
      <point x="64.0" y="14.0"/>
      <point x="51.0" y="0.0"/>
      <point x="34.0" y="0.0" type="curve" smooth="yes"/>
      <point x="19.0" y="0.0"/>
      <point x="5.0" y="14.0"/>
      <point x="5.0" y="29.0" type="curve" smooth="yes"/>
      <point x="5.0" y="46.0"/>
      <point x="19.0" y="58.0"/>
      <point x="34.0" y="58.0" type="curve" smooth="yes"/>
      <point x="51.0" y="58.0"/>
      <point x="64.0" y="46.0"/>
    </contour>
  </outline>
</glyph>
<glyph name="R.mod08" format="1">
  <advance width="0"/>
  <outline>
    <contour>
      <point x="314.0" y="208.0" type="curve" smooth="yes"/>
      <point x="298.0" y="208.0"/>
      <point x="285.0" y="221.0"/>
      <point x="285.0" y="237.0" type="curve" smooth="yes"/>
      <point x="285.0" y="253.0"/>
      <point x="298.0" y="266.0"/>
      <point x="314.0" y="266.0" type="curve" smooth="yes"/>
      <point x="330.0" y="266.0"/>
      <point x="344.0" y="253.0"/>
      <point x="344.0" y="237.0" type="curve" smooth="yes"/>
      <point x="344.0" y="221.0"/>
      <point x="330.0" y="208.0"/>
    </contour>
    <contour>
      <point x="64.0" y="237.0" type="curve" smooth="yes"/>
      <point x="64.0" y="221.0"/>
      <point x="51.0" y="208.0"/>
      <point x="34.0" y="208.0" type="curve" smooth="yes"/>
      <point x="19.0" y="208.0"/>
      <point x="5.0" y="221.0"/>
      <point x="5.0" y="237.0" type="curve" smooth="yes"/>
      <point x="5.0" y="253.0"/>
      <point x="19.0" y="266.0"/>
      <point x="34.0" y="266.0" type="curve" smooth="yes"/>
      <point x="51.0" y="266.0"/>
      <point x="64.0" y="253.0"/>
    </contour>
  </outline>
</glyph>
<glyph name="S.mod04" format="1">
  <advance width="0"/>
  <outline>
    <contour>
      <point x="134" y="513" type="curve" smooth="yes"/>
      <point x="134" y="496"/>
      <point x="121" y="484"/>
      <point x="104" y="484" type="curve" smooth="yes"/>
      <point x="89" y="484"/>
      <point x="75" y="496"/>
      <point x="75" y="513" type="curve" smooth="yes"/>
      <point x="75" y="530"/>
      <point x="89" y="542"/>
      <point x="104" y="542" type="curve" smooth="yes"/>
      <point x="121" y="542"/>
      <point x="134" y="530"/>
    </contour>
  </outline>
</glyph>
<glyph name="S.mod08" format="1">
  <advance width="0"/>
  <outline>
    <contour>
      <point x="414" y="237" type="curve" smooth="yes"/>
      <point x="414" y="221"/>
      <point x="400" y="207"/>
      <point x="384" y="207" type="curve" smooth="yes"/>
      <point x="367" y="207"/>
      <point x="355" y="221"/>
      <point x="355" y="237" type="curve" smooth="yes"/>
      <point x="355" y="253"/>
      <point x="367" y="266"/>
      <point x="384" y="266" type="curve" smooth="yes"/>
      <point x="400" y="266"/>
      <point x="414" y="253"/>
    </contour>
    <contour>
      <point x="64" y="237" type="curve" smooth="yes"/>
      <point x="64" y="221"/>
      <point x="50" y="208"/>
      <point x="34" y="208" type="curve" smooth="yes"/>
      <point x="17" y="208"/>
      <point x="5" y="221"/>
      <point x="5" y="237" type="curve" smooth="yes"/>
      <point x="5" y="253"/>
      <point x="17" y="266"/>
      <point x="34" y="266" type="curve" smooth="yes"/>
      <point x="50" y="266"/>
      <point x="64" y="253"/>
    </contour>
  </outline>
</glyph>
<glyph name="T.mod02" format="1">
  <advance width="0"/>
  <outline>
    <contour>
      <point x="215" y="651" type="curve" smooth="yes"/>
      <point x="215" y="635"/>
      <point x="228" y="622"/>
      <point x="245" y="622" type="curve" smooth="yes"/>
      <point x="261" y="622"/>
      <point x="274" y="635"/>
      <point x="274" y="651" type="curve" smooth="yes"/>
      <point x="274" y="667"/>
      <point x="261" y="681"/>
      <point x="245" y="681" type="curve" smooth="yes"/>
      <point x="228" y="681"/>
      <point x="215" y="667"/>
    </contour>
  </outline>
</glyph>
<glyph name="T.mod03" format="1">
  <advance width="0"/>
  <outline>
    <contour>
      <point x="215" y="582" type="curve" smooth="yes"/>
      <point x="215" y="566"/>
      <point x="228" y="553"/>
      <point x="245" y="553" type="curve" smooth="yes"/>
      <point x="261" y="553"/>
      <point x="274" y="566"/>
      <point x="274" y="582" type="curve" smooth="yes"/>
      <point x="274" y="598"/>
      <point x="261" y="611"/>
      <point x="245" y="611" type="curve" smooth="yes"/>
      <point x="228" y="611"/>
      <point x="215" y="598"/>
    </contour>
  </outline>
</glyph>
<glyph name="T.mod04" format="1">
  <advance width="0"/>
  <outline>
    <contour>
      <point x="215" y="513" type="curve" smooth="yes"/>
      <point x="215" y="497"/>
      <point x="228" y="484"/>
      <point x="245" y="484" type="curve" smooth="yes"/>
      <point x="261" y="484"/>
      <point x="274" y="497"/>
      <point x="274" y="513" type="curve" smooth="yes"/>
      <point x="274" y="529"/>
      <point x="261" y="542"/>
      <point x="245" y="542" type="curve" smooth="yes"/>
      <point x="228" y="542"/>
      <point x="215" y="529"/>
    </contour>
  </outline>
</glyph>
<glyph name="T.mod06" format="1">
  <advance width="0"/>
  <outline>
    <contour>
      <point x="215" y="375" type="curve" smooth="yes"/>
      <point x="215" y="359"/>
      <point x="228" y="346"/>
      <point x="245" y="346" type="curve" smooth="yes"/>
      <point x="261" y="346"/>
      <point x="274" y="359"/>
      <point x="274" y="375" type="curve" smooth="yes"/>
      <point x="274" y="392"/>
      <point x="261" y="404"/>
      <point x="245" y="404" type="curve" smooth="yes"/>
      <point x="228" y="404"/>
      <point x="215" y="392"/>
    </contour>
  </outline>
</glyph>
<glyph name="T.mod11" format="1">
  <advance width="560"/>
  <outline>
    <contour>
      <point x="215" y="29" type="curve" smooth="yes"/>
      <point x="215" y="14"/>
      <point x="228" y="0"/>
      <point x="245" y="0" type="curve" smooth="yes"/>
      <point x="261" y="0"/>
      <point x="274" y="14"/>
      <point x="274" y="29" type="curve" smooth="yes"/>
      <point x="274" y="46"/>
      <point x="261" y="58"/>
      <point x="245" y="58" type="curve" smooth="yes"/>
      <point x="228" y="58"/>
      <point x="215" y="46"/>
    </contour>
  </outline>
</glyph>
<glyph name="V.mod03" format="1">
  <advance width="0"/>
  <outline>
    <contour>
      <point x="64" y="583" type="curve" smooth="yes"/>
      <point x="64" y="566"/>
      <point x="51" y="554"/>
      <point x="34" y="554" type="curve" smooth="yes"/>
      <point x="19" y="554"/>
      <point x="5" y="566"/>
      <point x="5" y="583" type="curve" smooth="yes"/>
      <point x="5" y="600"/>
      <point x="19" y="612"/>
      <point x="34" y="612" type="curve" smooth="yes"/>
      <point x="51" y="612"/>
      <point x="64" y="600"/>
    </contour>
    <contour>
      <point x="484" y="583" type="curve" smooth="yes"/>
      <point x="484" y="566"/>
      <point x="470" y="554"/>
      <point x="454" y="554" type="curve" smooth="yes"/>
      <point x="437" y="554"/>
      <point x="425" y="566"/>
      <point x="425" y="583" type="curve" smooth="yes"/>
      <point x="425" y="600"/>
      <point x="437" y="612"/>
      <point x="454" y="612" type="curve" smooth="yes"/>
      <point x="470" y="612"/>
      <point x="484" y="600"/>
    </contour>
  </outline>
</glyph>
<glyph name="V.mod04" format="1">
  <advance width="0"/>
  <outline>
    <contour>
      <point x="484" y="514" type="curve" smooth="yes"/>
      <point x="484" y="498"/>
      <point x="470" y="485"/>
      <point x="454" y="485" type="curve" smooth="yes"/>
      <point x="437" y="485"/>
      <point x="425" y="498"/>
      <point x="425" y="514" type="curve" smooth="yes"/>
      <point x="425" y="531"/>
      <point x="437" y="543"/>
      <point x="454" y="543" type="curve" smooth="yes"/>
      <point x="470" y="543"/>
      <point x="484" y="531"/>
    </contour>
    <contour>
      <point x="64" y="514" type="curve" smooth="yes"/>
      <point x="64" y="498"/>
      <point x="51" y="485"/>
      <point x="34" y="485" type="curve" smooth="yes"/>
      <point x="19" y="485"/>
      <point x="5" y="498"/>
      <point x="5" y="514" type="curve" smooth="yes"/>
      <point x="5" y="531"/>
      <point x="19" y="543"/>
      <point x="34" y="543" type="curve" smooth="yes"/>
      <point x="51" y="543"/>
      <point x="64" y="531"/>
    </contour>
  </outline>
</glyph>
<glyph name="V.mod07" format="1">
  <advance width="0"/>
  <outline>
    <contour>
      <point x="134" y="307" type="curve" smooth="yes"/>
      <point x="134" y="291"/>
      <point x="121" y="277"/>
      <point x="104" y="277" type="curve" smooth="yes"/>
      <point x="89" y="277"/>
      <point x="75" y="291"/>
      <point x="75" y="307" type="curve" smooth="yes"/>
      <point x="75" y="323"/>
      <point x="89" y="336"/>
      <point x="104" y="336" type="curve" smooth="yes"/>
      <point x="121" y="336"/>
      <point x="134" y="323"/>
    </contour>
    <contour>
      <point x="414" y="307" type="curve" smooth="yes"/>
      <point x="414" y="291"/>
      <point x="400" y="277"/>
      <point x="384" y="277" type="curve" smooth="yes"/>
      <point x="367" y="277"/>
      <point x="355" y="291"/>
      <point x="355" y="307" type="curve" smooth="yes"/>
      <point x="355" y="323"/>
      <point x="367" y="336"/>
      <point x="384" y="336" type="curve" smooth="yes"/>
      <point x="400" y="336"/>
      <point x="414" y="323"/>
    </contour>
  </outline>
</glyph>
<glyph name="V.mod09" format="1">
  <advance width="0"/>
  <outline>
    <contour>
      <point x="344" y="168" type="curve" smooth="yes"/>
      <point x="344" y="153"/>
      <point x="330" y="139"/>
      <point x="314" y="139" type="curve" smooth="yes"/>
      <point x="298" y="139"/>
      <point x="285" y="153"/>
      <point x="285" y="168" type="curve" smooth="yes"/>
      <point x="285" y="185"/>
      <point x="298" y="197"/>
      <point x="314" y="197" type="curve" smooth="yes"/>
      <point x="330" y="197"/>
      <point x="344" y="185"/>
    </contour>
    <contour>
      <point x="204" y="168" type="curve" smooth="yes"/>
      <point x="204" y="153"/>
      <point x="191" y="139"/>
      <point x="174" y="139" type="curve" smooth="yes"/>
      <point x="159" y="139"/>
      <point x="145" y="153"/>
      <point x="145" y="168" type="curve" smooth="yes"/>
      <point x="145" y="185"/>
      <point x="159" y="197"/>
      <point x="174" y="197" type="curve" smooth="yes"/>
      <point x="191" y="197"/>
      <point x="204" y="185"/>
    </contour>
  </outline>
</glyph>
<glyph name="V.mod11" format="1">
  <advance width="560"/>
  <outline>
    <contour>
      <point x="274" y="30" type="curve" smooth="yes"/>
      <point x="274" y="15"/>
      <point x="261" y="1"/>
      <point x="244" y="1" type="curve" smooth="yes"/>
      <point x="228" y="1"/>
      <point x="215" y="15"/>
      <point x="215" y="30" type="curve" smooth="yes"/>
      <point x="215" y="47"/>
      <point x="228" y="59"/>
      <point x="244" y="59" type="curve" smooth="yes"/>
      <point x="261" y="59"/>
      <point x="274" y="47"/>
    </contour>
  </outline>
</glyph>
<glyph name="W.mod06" format="1">
  <advance width="0"/>
  <outline>
    <contour>
      <point x="64.0" y="375.0" type="curve" smooth="yes"/>
      <point x="64.0" y="359.0"/>
      <point x="51.0" y="346.0"/>
      <point x="34.0" y="346.0" type="curve" smooth="yes"/>
      <point x="19.0" y="346.0"/>
      <point x="5.0" y="359.0"/>
      <point x="5.0" y="375.0" type="curve" smooth="yes"/>
      <point x="5.0" y="392.0"/>
      <point x="19.0" y="404.0"/>
      <point x="34.0" y="404.0" type="curve" smooth="yes"/>
      <point x="51.0" y="404.0"/>
      <point x="64.0" y="392.0"/>
    </contour>
    <contour>
      <point x="484.0" y="375.0" type="curve" smooth="yes"/>
      <point x="484.0" y="359.0"/>
      <point x="470.0" y="346.0"/>
      <point x="454.0" y="346.0" type="curve" smooth="yes"/>
      <point x="437.0" y="346.0"/>
      <point x="425.0" y="359.0"/>
      <point x="425.0" y="375.0" type="curve" smooth="yes"/>
      <point x="425.0" y="392.0"/>
      <point x="437.0" y="404.0"/>
      <point x="454.0" y="404.0" type="curve" smooth="yes"/>
      <point x="470.0" y="404.0"/>
      <point x="484.0" y="392.0"/>
    </contour>
    <contour>
      <point x="274.0" y="375.0" type="curve" smooth="yes"/>
      <point x="274.0" y="359.0"/>
      <point x="261.0" y="346.0"/>
      <point x="244.0" y="346.0" type="curve" smooth="yes"/>
      <point x="228.0" y="346.0"/>
      <point x="215.0" y="359.0"/>
      <point x="215.0" y="375.0" type="curve" smooth="yes"/>
      <point x="215.0" y="392.0"/>
      <point x="228.0" y="404.0"/>
      <point x="244.0" y="404.0" type="curve" smooth="yes"/>
      <point x="261.0" y="404.0"/>
      <point x="274.0" y="392.0"/>
    </contour>
  </outline>
</glyph>
<glyph name="Y.mod08" format="1">
  <advance width="0"/>
  <outline>
    <contour>
      <point x="414.0" y="237.0" type="curve" smooth="yes"/>
      <point x="414.0" y="221.0"/>
      <point x="400.0" y="208.0"/>
      <point x="384.0" y="208.0" type="curve" smooth="yes"/>
      <point x="367.0" y="208.0"/>
      <point x="355.0" y="221.0"/>
      <point x="355.0" y="237.0" type="curve" smooth="yes"/>
      <point x="355.0" y="253.0"/>
      <point x="367.0" y="266.0"/>
      <point x="384.0" y="266.0" type="curve" smooth="yes"/>
      <point x="400.0" y="266.0"/>
      <point x="414.0" y="253.0"/>
    </contour>
    <contour>
      <point x="484.0" y="237.0" type="curve" smooth="yes"/>
      <point x="484.0" y="221.0"/>
      <point x="470.0" y="208.0"/>
      <point x="454.0" y="208.0" type="curve" smooth="yes"/>
      <point x="437.0" y="208.0"/>
      <point x="425.0" y="221.0"/>
      <point x="425.0" y="237.0" type="curve" smooth="yes"/>
      <point x="425.0" y="253.0"/>
      <point x="437.0" y="266.0"/>
      <point x="454.0" y="266.0" type="curve" smooth="yes"/>
      <point x="470.0" y="266.0"/>
      <point x="484.0" y="253.0"/>
    </contour>
    <contour>
      <point x="204.0" y="237.0" type="curve" smooth="yes"/>
      <point x="204.0" y="221.0"/>
      <point x="191.0" y="208.0"/>
      <point x="174.0" y="208.0" type="curve" smooth="yes"/>
      <point x="159.0" y="208.0"/>
      <point x="145.0" y="221.0"/>
      <point x="145.0" y="237.0" type="curve" smooth="yes"/>
      <point x="145.0" y="253.0"/>
      <point x="159.0" y="266.0"/>
      <point x="174.0" y="266.0" type="curve" smooth="yes"/>
      <point x="191.0" y="266.0"/>
      <point x="204.0" y="253.0"/>
    </contour>
    <contour>
      <point x="274.0" y="237.0" type="curve" smooth="yes"/>
      <point x="274.0" y="221.0"/>
      <point x="261.0" y="208.0"/>
      <point x="244.0" y="208.0" type="curve" smooth="yes"/>
      <point x="228.0" y="208.0"/>
      <point x="215.0" y="221.0"/>
      <point x="215.0" y="237.0" type="curve" smooth="yes"/>
      <point x="215.0" y="253.0"/>
      <point x="228.0" y="266.0"/>
      <point x="244.0" y="266.0" type="curve" smooth="yes"/>
      <point x="261.0" y="266.0"/>
      <point x="274.0" y="253.0"/>
    </contour>
    <contour>
      <point x="344.0" y="237.0" type="curve" smooth="yes"/>
      <point x="344.0" y="221.0"/>
      <point x="330.0" y="208.0"/>
      <point x="314.0" y="208.0" type="curve" smooth="yes"/>
      <point x="298.0" y="208.0"/>
      <point x="285.0" y="221.0"/>
      <point x="285.0" y="237.0" type="curve" smooth="yes"/>
      <point x="285.0" y="253.0"/>
      <point x="298.0" y="266.0"/>
      <point x="314.0" y="266.0" type="curve" smooth="yes"/>
      <point x="330.0" y="266.0"/>
      <point x="344.0" y="253.0"/>
    </contour>
  </outline>
</glyph>
<glyph name="Y.mod11" format="1">
  <advance width="560"/>
  <outline>
    <contour>
      <point x="104.0" y="0.0" type="curve" smooth="yes"/>
      <point x="89.0" y="0.0"/>
      <point x="75.0" y="14.0"/>
      <point x="75.0" y="29.0" type="curve" smooth="yes"/>
      <point x="75.0" y="46.0"/>
      <point x="89.0" y="58.0"/>
      <point x="104.0" y="58.0" type="curve" smooth="yes"/>
      <point x="121.0" y="58.0"/>
      <point x="134.0" y="46.0"/>
      <point x="134.0" y="29.0" type="curve" smooth="yes"/>
      <point x="134.0" y="14.0"/>
      <point x="121.0" y="0.0"/>
    </contour>
    <contour>
      <point x="204.0" y="29.0" type="curve" smooth="yes"/>
      <point x="204.0" y="14.0"/>
      <point x="191.0" y="0.0"/>
      <point x="174.0" y="0.0" type="curve" smooth="yes"/>
      <point x="159.0" y="0.0"/>
      <point x="145.0" y="14.0"/>
      <point x="145.0" y="29.0" type="curve" smooth="yes"/>
      <point x="145.0" y="46.0"/>
      <point x="159.0" y="58.0"/>
      <point x="174.0" y="58.0" type="curve" smooth="yes"/>
      <point x="191.0" y="58.0"/>
      <point x="204.0" y="46.0"/>
    </contour>
    <contour>
      <point x="414.0" y="29.0" type="curve" smooth="yes"/>
      <point x="414.0" y="14.0"/>
      <point x="400.0" y="0.0"/>
      <point x="384.0" y="0.0" type="curve" smooth="yes"/>
      <point x="367.0" y="0.0"/>
      <point x="355.0" y="14.0"/>
      <point x="355.0" y="29.0" type="curve" smooth="yes"/>
      <point x="355.0" y="46.0"/>
      <point x="367.0" y="58.0"/>
      <point x="384.0" y="58.0" type="curve" smooth="yes"/>
      <point x="400.0" y="58.0"/>
      <point x="414.0" y="46.0"/>
    </contour>
    <contour>
      <point x="344.0" y="29.0" type="curve" smooth="yes"/>
      <point x="344.0" y="14.0"/>
      <point x="330.0" y="0.0"/>
      <point x="314.0" y="0.0" type="curve" smooth="yes"/>
      <point x="298.0" y="0.0"/>
      <point x="285.0" y="14.0"/>
      <point x="285.0" y="29.0" type="curve" smooth="yes"/>
      <point x="285.0" y="46.0"/>
      <point x="298.0" y="58.0"/>
      <point x="314.0" y="58.0" type="curve" smooth="yes"/>
      <point x="330.0" y="58.0"/>
      <point x="344.0" y="46.0"/>
    </contour>
    <contour>
      <point x="274.0" y="29.0" type="curve" smooth="yes"/>
      <point x="274.0" y="14.0"/>
      <point x="261.0" y="0.0"/>
      <point x="244.0" y="0.0" type="curve" smooth="yes"/>
      <point x="228.0" y="0.0"/>
      <point x="215.0" y="14.0"/>
      <point x="215.0" y="29.0" type="curve" smooth="yes"/>
      <point x="215.0" y="46.0"/>
      <point x="228.0" y="58.0"/>
      <point x="244.0" y="58.0" type="curve" smooth="yes"/>
      <point x="261.0" y="58.0"/>
      <point x="274.0" y="46.0"/>
    </contour>
  </outline>
</glyph>
<glyph name="Z.mod04" format="1">
  <advance width="0"/>
  <outline>
    <contour>
      <point x="344.0" y="513.0" type="curve" smooth="yes"/>
      <point x="344.0" y="497.0"/>
      <point x="330.0" y="484.0"/>
      <point x="314.0" y="484.0" type="curve" smooth="yes"/>
      <point x="298.0" y="484.0"/>
      <point x="285.0" y="497.0"/>
      <point x="285.0" y="513.0" type="curve" smooth="yes"/>
      <point x="285.0" y="529.0"/>
      <point x="298.0" y="542.0"/>
      <point x="314.0" y="542.0" type="curve" smooth="yes"/>
      <point x="330.0" y="542.0"/>
      <point x="344.0" y="529.0"/>
    </contour>
  </outline>
</glyph>
<glyph name="Z.mod06" format="1">
  <advance width="0"/>
  <outline>
    <contour>
      <point x="204.0" y="375.0" type="curve" smooth="yes"/>
      <point x="204.0" y="359.0"/>
      <point x="191.0" y="346.0"/>
      <point x="174.0" y="346.0" type="curve" smooth="yes"/>
      <point x="159.0" y="346.0"/>
      <point x="145.0" y="359.0"/>
      <point x="145.0" y="375.0" type="curve" smooth="yes"/>
      <point x="145.0" y="392.0"/>
      <point x="159.0" y="404.0"/>
      <point x="174.0" y="404.0" type="curve" smooth="yes"/>
      <point x="191.0" y="404.0"/>
      <point x="204.0" y="392.0"/>
    </contour>
    <contour>
      <point x="215.0" y="375.0" type="curve" smooth="yes"/>
      <point x="215.0" y="392.0"/>
      <point x="215.0" y="359.0"/>
    </contour>
  </outline>
</glyph>
<glyph name="four.mod01" format="1">
  <advance width="0"/>
  <outline>
    <contour>
      <point x="414.0" y="721.0" type="curve" smooth="yes"/>
      <point x="414.0" y="704.0"/>
      <point x="400.0" y="691.0"/>
      <point x="384.0" y="691.0" type="curve" smooth="yes"/>
      <point x="367.0" y="691.0"/>
      <point x="355.0" y="704.0"/>
      <point x="355.0" y="721.0" type="curve" smooth="yes"/>
      <point x="355.0" y="736.0"/>
      <point x="367.0" y="750.0"/>
      <point x="384.0" y="750.0" type="curve" smooth="yes"/>
      <point x="400.0" y="750.0"/>
      <point x="414.0" y="736.0"/>
    </contour>
  </outline>
</glyph>
<glyph name="nine.mod02" format="1">
  <advance width="0"/>
  <outline>
    <contour>
      <point x="105.0" y="681.0" type="curve" smooth="yes"/>
      <point x="122.0" y="681.0"/>
      <point x="134.0" y="667.0"/>
      <point x="134.0" y="652.0" type="curve" smooth="yes"/>
      <point x="134.0" y="635.0"/>
      <point x="122.0" y="622.0"/>
      <point x="105.0" y="622.0" type="curve" smooth="yes"/>
      <point x="89.0" y="622.0"/>
      <point x="75.0" y="635.0"/>
      <point x="75.0" y="652.0" type="curve" smooth="yes"/>
      <point x="75.0" y="667.0"/>
      <point x="89.0" y="681.0"/>
    </contour>
    <contour>
      <point x="455.0" y="681.0" type="curve" smooth="yes"/>
      <point x="470.0" y="681.0"/>
      <point x="484.0" y="667.0"/>
      <point x="484.0" y="652.0" type="curve" smooth="yes"/>
      <point x="484.0" y="635.0"/>
      <point x="470.0" y="622.0"/>
      <point x="455.0" y="622.0" type="curve" smooth="yes"/>
      <point x="438.0" y="622.0"/>
      <point x="425.0" y="635.0"/>
      <point x="425.0" y="652.0" type="curve" smooth="yes"/>
      <point x="425.0" y="667.0"/>
      <point x="438.0" y="681.0"/>
    </contour>
  </outline>
</glyph>
<glyph name="nine.mod06" format="1">
  <advance width="0"/>
  <outline>
    <contour>
      <point x="315.0" y="404.0" type="curve" smooth="yes"/>
      <point x="330.0" y="404.0"/>
      <point x="344.0" y="391.0"/>
      <point x="344.0" y="375.0" type="curve" smooth="yes"/>
      <point x="344.0" y="358.0"/>
      <point x="330.0" y="346.0"/>
      <point x="315.0" y="346.0" type="curve" smooth="yes"/>
      <point x="298.0" y="346.0"/>
      <point x="285.0" y="358.0"/>
      <point x="285.0" y="375.0" type="curve" smooth="yes"/>
      <point x="285.0" y="391.0"/>
      <point x="298.0" y="404.0"/>
    </contour>
    <contour>
      <point x="245.0" y="404.0" type="curve" smooth="yes"/>
      <point x="261.0" y="404.0"/>
      <point x="274.0" y="391.0"/>
      <point x="274.0" y="375.0" type="curve" smooth="yes"/>
      <point x="274.0" y="358.0"/>
      <point x="261.0" y="346.0"/>
      <point x="245.0" y="346.0" type="curve" smooth="yes"/>
      <point x="228.0" y="346.0"/>
      <point x="215.0" y="358.0"/>
      <point x="215.0" y="375.0" type="curve" smooth="yes"/>
      <point x="215.0" y="391.0"/>
      <point x="228.0" y="404.0"/>
    </contour>
    <contour>
      <point x="455.0" y="404.0" type="curve" smooth="yes"/>
      <point x="470.0" y="404.0"/>
      <point x="484.0" y="391.0"/>
      <point x="484.0" y="375.0" type="curve" smooth="yes"/>
      <point x="484.0" y="358.0"/>
      <point x="470.0" y="346.0"/>
      <point x="455.0" y="346.0" type="curve" smooth="yes"/>
      <point x="438.0" y="346.0"/>
      <point x="425.0" y="358.0"/>
      <point x="425.0" y="375.0" type="curve" smooth="yes"/>
      <point x="425.0" y="391.0"/>
      <point x="438.0" y="404.0"/>
    </contour>
    <contour>
      <point x="385.0" y="404.0" type="curve" smooth="yes"/>
      <point x="400.0" y="404.0"/>
      <point x="414.0" y="391.0"/>
      <point x="414.0" y="375.0" type="curve" smooth="yes"/>
      <point x="414.0" y="358.0"/>
      <point x="400.0" y="346.0"/>
      <point x="385.0" y="346.0" type="curve" smooth="yes"/>
      <point x="368.0" y="346.0"/>
      <point x="355.0" y="358.0"/>
      <point x="355.0" y="375.0" type="curve" smooth="yes"/>
      <point x="355.0" y="391.0"/>
      <point x="368.0" y="404.0"/>
    </contour>
    <contour>
      <point x="175.0" y="404.0" type="curve" smooth="yes"/>
      <point x="191.0" y="404.0"/>
      <point x="204.0" y="391.0"/>
      <point x="204.0" y="375.0" type="curve" smooth="yes"/>
      <point x="204.0" y="358.0"/>
      <point x="191.0" y="346.0"/>
      <point x="175.0" y="346.0" type="curve" smooth="yes"/>
      <point x="159.0" y="346.0"/>
      <point x="145.0" y="358.0"/>
      <point x="145.0" y="375.0" type="curve" smooth="yes"/>
      <point x="145.0" y="391.0"/>
      <point x="159.0" y="404.0"/>
    </contour>
    <contour>
      <point x="105.0" y="404.0" type="curve" smooth="yes"/>
      <point x="122.0" y="404.0"/>
      <point x="134.0" y="391.0"/>
      <point x="134.0" y="375.0" type="curve" smooth="yes"/>
      <point x="134.0" y="358.0"/>
      <point x="122.0" y="346.0"/>
      <point x="105.0" y="346.0" type="curve" smooth="yes"/>
      <point x="89.0" y="346.0"/>
      <point x="75.0" y="358.0"/>
      <point x="75.0" y="375.0" type="curve" smooth="yes"/>
      <point x="75.0" y="391.0"/>
      <point x="89.0" y="404.0"/>
    </contour>
  </outline>
</glyph>
<glyph name="one.mod05" format="1">
  <advance width="0"/>
  <outline>
    <contour>
      <point x="274.0" y="444.0" type="curve" smooth="yes"/>
      <point x="274.0" y="427.0"/>
      <point x="261.0" y="415.0"/>
      <point x="244.0" y="415.0" type="curve" smooth="yes"/>
      <point x="228.0" y="415.0"/>
      <point x="215.0" y="427.0"/>
      <point x="215.0" y="444.0" type="curve" smooth="yes"/>
      <point x="215.0" y="461.0"/>
      <point x="228.0" y="473.0"/>
      <point x="244.0" y="473.0" type="curve" smooth="yes"/>
      <point x="261.0" y="473.0"/>
      <point x="274.0" y="461.0"/>
    </contour>
  </outline>
</glyph>
<glyph name="seven.mod10" format="1">
  <advance width="0"/>
  <outline>
    <contour>
      <point x="203.0" y="98.0" type="curve" smooth="yes"/>
      <point x="203.0" y="83.0"/>
      <point x="190.0" y="69.0"/>
      <point x="173.0" y="69.0" type="curve" smooth="yes"/>
      <point x="158.0" y="69.0"/>
      <point x="144.0" y="83.0"/>
      <point x="144.0" y="98.0" type="curve" smooth="yes"/>
      <point x="144.0" y="115.0"/>
      <point x="158.0" y="128.0"/>
      <point x="173.0" y="128.0" type="curve" smooth="yes"/>
      <point x="190.0" y="128.0"/>
      <point x="203.0" y="115.0"/>
    </contour>
  </outline>
</glyph>
<glyph name="two.mod06" format="1">
  <advance width="0"/>
  <outline>
    <contour>
      <point x="274.0" y="375.0" type="curve" smooth="yes"/>
      <point x="274.0" y="359.0"/>
      <point x="261.0" y="346.0"/>
      <point x="244.0" y="346.0" type="curve" smooth="yes"/>
      <point x="228.0" y="346.0"/>
      <point x="215.0" y="359.0"/>
      <point x="215.0" y="375.0" type="curve" smooth="yes"/>
      <point x="215.0" y="392.0"/>
      <point x="228.0" y="404.0"/>
      <point x="244.0" y="404.0" type="curve" smooth="yes"/>
      <point x="261.0" y="404.0"/>
      <point x="274.0" y="392.0"/>
    </contour>
  </outline>
</glyph>
<glyph name="two.mod08" format="1">
  <advance width="0"/>
  <outline>
    <contour>
      <point x="134.0" y="237.0" type="curve" smooth="yes"/>
      <point x="134.0" y="221.0"/>
      <point x="121.0" y="208.0"/>
      <point x="104.0" y="208.0" type="curve" smooth="yes"/>
      <point x="89.0" y="208.0"/>
      <point x="75.0" y="221.0"/>
      <point x="75.0" y="237.0" type="curve" smooth="yes"/>
      <point x="75.0" y="253.0"/>
      <point x="89.0" y="266.0"/>
      <point x="104.0" y="266.0" type="curve" smooth="yes"/>
      <point x="121.0" y="266.0"/>
      <point x="134.0" y="253.0"/>
    </contour>
  </outline>
</glyph>
